<?xml version="1.0" encoding="UTF-8" standalone="no" ?><!DOCTYPE svg PUBLIC "-//W3C//DTD SVG 1.1//EN" "http://www.w3.org/Graphics/SVG/1.1/DTD/svg11.dtd"><svg xmlns="http://www.w3.org/2000/svg" xmlns:xlink="http://www.w3.org/1999/xlink" version="1.1" width="634" height="291" style="background-color: #FFFFFF" viewBox="0 0 634 291" xml:space="preserve"><desc>Created with Fabric.js 1.6.2</desc><defs></defs><g style="stroke: none; stroke-width: 1; stroke-dasharray: none; stroke-linecap: butt; stroke-linejoin: miter; stroke-miterlimit: 10; fill: none; fill-rule: nonzero; opacity: 1" transform="translate(0 0)" ><path d="M 0.5 0.5 L 633.5 0.5 L 633.5 186.5 L 0.5 186.5 Z" style="stroke:#000000;stroke-opacity:1; stroke-opacity: 0; stroke-width: 1; stroke-dasharray: none; stroke-linecap: butt; stroke-linejoin: miter; stroke-miterlimit: 10;fill:#FFFFFF;fill-opacity:1; fill-opacity: 0; fill-rule: nonzero; opacity: 1" transform="" stroke-linecap="round" /><path d="M 317 111 L 297.3534989139764 57.727926137925294 A 79 55 0 0 1 316.9999999999999 56 L 317 111 Z" style="stroke: none; stroke-width: 1; stroke-dasharray: none; stroke-linecap: butt; stroke-linejoin: miter; stroke-miterlimit: 10;fill:#A4688A;fill-opacity:1; fill-rule: nonzero; opacity: 1" transform=" matrix(1 0 0 1 0 0) " stroke-linecap="round" /><path d="M 317 111 L 297.3534989139764 57.727926137925294 A 79 55 0 0 1 316.9999999999999 56 L 317 111 Z" style="stroke: none; stroke-width: 1; stroke-dasharray: none; stroke-linecap: butt; stroke-linejoin: miter; stroke-miterlimit: 10;fill:#A4688A;fill-opacity:1; fill-rule: nonzero; opacity: 1" transform=" matrix(1 0 0 1 0 -10) " stroke-linecap="round" /><path d="M 317 98 L 317 111 L 297.3534989139764 57.727926137925294 L 297.3534989139764 44.727926137925294 L 317 98 Z" style="stroke: none; stroke-width: 1; stroke-dasharray: none; stroke-linecap: butt; stroke-linejoin: miter; stroke-miterlimit: 10;fill:#A4688A;fill-opacity:1; fill-rule: nonzero; opacity: 1" transform=" matrix(1 0 0 1 0 0) " stroke-linecap="round" /><path d="M 316.9999999999999 43 L 316.9999999999999 56 L 317 111 L 317 98 L 316.9999999999999 43 Z" style="stroke: none; stroke-width: 1; stroke-dasharray: none; stroke-linecap: butt; stroke-linejoin: miter; stroke-miterlimit: 10;fill:#A4688A;fill-opacity:1; fill-rule: nonzero; opacity: 1" transform=" matrix(1 0 0 1 0 0) " stroke-linecap="round" /><path d="M 317 98 L 297.3534989139764 44.727926137925294 A 79 55 0 0 1 316.9999999999999 43 L 317 98 Z" style="stroke:#FFFFFF;stroke-opacity:1; stroke-width: 2; stroke-dasharray: none; stroke-linecap: butt; stroke-linejoin: miter; stroke-miterlimit: 10;fill:#CD82AD;fill-opacity:1; fill-rule: nonzero; opacity: 1" transform=" matrix(1 0 0 1 0 0) " stroke-linecap="round" /><path d="M 307.5 43.5 L 305.5 10.5 L 297.5 10.5" style="stroke:#000000;stroke-opacity:1; stroke-opacity: 0.3; stroke-width: 1; stroke-dasharray: none; stroke-linecap: butt; stroke-linejoin: miter; stroke-miterlimit: 10; fill: none; fill-rule: nonzero; opacity: 1" transform=" matrix(1 0 0 1 0 0) " stroke-linecap="round" /><path d="M 317 111 L 278.9414597459645 62.803132597587506 A 79 55 0 0 1 297.3534989139764 57.727926137925294 L 317 111 Z" style="stroke: none; stroke-width: 1; stroke-dasharray: none; stroke-linecap: butt; stroke-linejoin: miter; stroke-miterlimit: 10;fill:#A3393A;fill-opacity:1; fill-rule: nonzero; opacity: 1" transform=" matrix(1 0 0 1 0 0) " stroke-linecap="round" /><path d="M 317 111 L 278.9414597459645 62.803132597587506 A 79 55 0 0 1 297.3534989139764 57.727926137925294 L 317 111 Z" style="stroke: none; stroke-width: 1; stroke-dasharray: none; stroke-linecap: butt; stroke-linejoin: miter; stroke-miterlimit: 10;fill:#A3393A;fill-opacity:1; fill-rule: nonzero; opacity: 1" transform=" matrix(1 0 0 1 0 -10) " stroke-linecap="round" /><path d="M 317 98 L 317 111 L 278.9414597459645 62.803132597587506 L 278.9414597459645 49.803132597587506 L 317 98 Z" style="stroke: none; stroke-width: 1; stroke-dasharray: none; stroke-linecap: butt; stroke-linejoin: miter; stroke-miterlimit: 10;fill:#A3393A;fill-opacity:1; fill-rule: nonzero; opacity: 1" transform=" matrix(1 0 0 1 0 0) " stroke-linecap="round" /><path d="M 297.3534989139764 44.727926137925294 L 297.3534989139764 57.727926137925294 L 317 111 L 317 98 L 297.3534989139764 44.727926137925294 Z" style="stroke: none; stroke-width: 1; stroke-dasharray: none; stroke-linecap: butt; stroke-linejoin: miter; stroke-miterlimit: 10;fill:#A3393A;fill-opacity:1; fill-rule: nonzero; opacity: 1" transform=" matrix(1 0 0 1 0 0) " stroke-linecap="round" /><path d="M 317 98 L 278.9414597459645 49.803132597587506 A 79 55 0 0 1 297.3534989139764 44.727926137925294 L 317 98 Z" style="stroke:#FFFFFF;stroke-opacity:1; stroke-width: 2; stroke-dasharray: none; stroke-linecap: butt; stroke-linejoin: miter; stroke-miterlimit: 10;fill:#CC4748;fill-opacity:1; fill-rule: nonzero; opacity: 1" transform=" matrix(1 0 0 1 0 0) " stroke-linecap="round" /><path d="M 288.5 47.5 L 282.5 31.5 L 274.5 31.5" style="stroke:#000000;stroke-opacity:1; stroke-opacity: 0.3; stroke-width: 1; stroke-dasharray: none; stroke-linecap: butt; stroke-linejoin: miter; stroke-miterlimit: 10; fill: none; fill-rule: nonzero; opacity: 1" transform=" matrix(1 0 0 1 0 0) " stroke-linecap="round" /><path d="M 317 111 L 247.7717722765348 84.50354792440564 A 79 55 0 0 1 278.9414597459645 62.803132597587506 L 317 111 Z" style="stroke: none; stroke-width: 1; stroke-dasharray: none; stroke-linecap: butt; stroke-linejoin: miter; stroke-miterlimit: 10;fill:#6A924E;fill-opacity:1; fill-rule: nonzero; opacity: 1" transform=" matrix(1 0 0 1 0 0) " stroke-linecap="round" /><path d="M 317 111 L 247.7717722765348 84.50354792440564 A 79 55 0 0 1 278.9414597459645 62.803132597587506 L 317 111 Z" style="stroke: none; stroke-width: 1; stroke-dasharray: none; stroke-linecap: butt; stroke-linejoin: miter; stroke-miterlimit: 10;fill:#6A924E;fill-opacity:1; fill-rule: nonzero; opacity: 1" transform=" matrix(1 0 0 1 0 -10) " stroke-linecap="round" /><path d="M 317 98 L 317 111 L 247.7717722765348 84.50354792440564 L 247.7717722765348 71.50354792440564 L 317 98 Z" style="stroke: none; stroke-width: 1; stroke-dasharray: none; stroke-linecap: butt; stroke-linejoin: miter; stroke-miterlimit: 10;fill:#6A924E;fill-opacity:1; fill-rule: nonzero; opacity: 1" transform=" matrix(1 0 0 1 0 0) " stroke-linecap="round" /><path d="M 278.9414597459645 49.803132597587506 L 278.9414597459645 62.803132597587506 L 317 111 L 317 98 L 278.9414597459645 49.803132597587506 Z" style="stroke: none; stroke-width: 1; stroke-dasharray: none; stroke-linecap: butt; stroke-linejoin: miter; stroke-miterlimit: 10;fill:#6A924E;fill-opacity:1; fill-rule: nonzero; opacity: 1" transform=" matrix(1 0 0 1 0 0) " stroke-linecap="round" /><path d="M 317 98 L 247.7717722765348 71.50354792440564 A 79 55 0 0 1 278.9414597459645 49.803132597587506 L 317 98 Z" style="stroke:#FFFFFF;stroke-opacity:1; stroke-width: 2; stroke-dasharray: none; stroke-linecap: butt; stroke-linejoin: miter; stroke-miterlimit: 10;fill:#84B761;fill-opacity:1; fill-rule: nonzero; opacity: 1" transform=" matrix(1 0 0 1 0 0) " stroke-linecap="round" /><path d="M 261.5 59.5 L 250.5 51.5 L 242.5 51.5" style="stroke:#000000;stroke-opacity:1; stroke-opacity: 0.3; stroke-width: 1; stroke-dasharray: none; stroke-linecap: butt; stroke-linejoin: miter; stroke-miterlimit: 10; fill: none; fill-rule: nonzero; opacity: 1" transform=" matrix(1 0 0 1 0 0) " stroke-linecap="round" /><path d="M 317 111 L 317 56 A 79 55 0 0 1 346.0818396620895 162.13770672385382 L 317 111 Z" style="stroke: none; stroke-width: 1; stroke-dasharray: none; stroke-linecap: butt; stroke-linejoin: miter; stroke-miterlimit: 10;fill:#5292B0;fill-opacity:1; fill-rule: nonzero; opacity: 1" transform=" matrix(1 0 0 1 0 0) " stroke-linecap="round" /><path d="M 317 111 L 317 56 A 79 55 0 0 1 346.0818396620895 162.13770672385382 L 317 111 Z" style="stroke: none; stroke-width: 1; stroke-dasharray: none; stroke-linecap: butt; stroke-linejoin: miter; stroke-miterlimit: 10;fill:#5292B0;fill-opacity:1; fill-rule: nonzero; opacity: 1" transform=" matrix(1 0 0 1 0 -10) " stroke-linecap="round" /><path d="M 317 98 L 317 111 L 317 56 L 317 43 L 317 98 Z" style="stroke: none; stroke-width: 1; stroke-dasharray: none; stroke-linecap: butt; stroke-linejoin: miter; stroke-miterlimit: 10;fill:#5292B0;fill-opacity:1; fill-rule: nonzero; opacity: 1" transform=" matrix(1 0 0 1 0 0) " stroke-linecap="round" /><path d="M 346.0818396620895 149.13770672385382 L 346.0818396620895 162.13770672385382 L 317 111 L 317 98 L 346.0818396620895 149.13770672385382 Z" style="stroke: none; stroke-width: 1; stroke-dasharray: none; stroke-linecap: butt; stroke-linejoin: miter; stroke-miterlimit: 10;fill:#5292B0;fill-opacity:1; fill-rule: nonzero; opacity: 1" transform=" matrix(1 0 0 1 0 0) " stroke-linecap="round" /><path d="M 317 98 L 317 43 A 79 55 0 0 1 346.0818396620895 149.13770672385382 L 317 98 Z" style="stroke:#FFFFFF;stroke-opacity:1; stroke-width: 2; stroke-dasharray: none; stroke-linecap: butt; stroke-linejoin: miter; stroke-miterlimit: 10;fill:#67B7DC;fill-opacity:1; fill-rule: nonzero; opacity: 1" transform=" matrix(1 0 0 1 0 0) " stroke-linecap="round" /><path d="M 395.5 88.5 L 409.5 86.5 L 417.5 86.5" style="stroke:#000000;stroke-opacity:1; stroke-opacity: 0.3; stroke-width: 1; stroke-dasharray: none; stroke-linecap: butt; stroke-linejoin: miter; stroke-miterlimit: 10; fill: none; fill-rule: nonzero; opacity: 1" transform=" matrix(1 0 0 1 0 0) " stroke-linecap="round" /><path d="M 317 111 L 346.0818396620895 162.13770672385382 A 79 55 0 0 1 247.7717722765348 84.50354792440564 L 317 111 Z" style="stroke: none; stroke-width: 1; stroke-dasharray: none; stroke-linecap: butt; stroke-linejoin: miter; stroke-miterlimit: 10;fill:#CAAA00;fill-opacity:1; fill-rule: nonzero; opacity: 1" transform=" matrix(1 0 0 1 0 0) " stroke-linecap="round" /><path d="M 317 111 L 346.0818396620895 162.13770672385382 A 79 55 0 0 1 247.7717722765348 84.50354792440564 L 317 111 Z" style="stroke: none; stroke-width: 1; stroke-dasharray: none; stroke-linecap: butt; stroke-linejoin: miter; stroke-miterlimit: 10;fill:#CAAA00;fill-opacity:1; fill-rule: nonzero; opacity: 1" transform=" matrix(1 0 0 1 0 -10) " stroke-linecap="round" /><path d="M 317 98 L 317 111 L 346.0818396620895 162.13770672385382 L 346.0818396620895 149.13770672385382 L 317 98 Z" style="stroke: none; stroke-width: 1; stroke-dasharray: none; stroke-linecap: butt; stroke-linejoin: miter; stroke-miterlimit: 10;fill:#CAAA00;fill-opacity:1; fill-rule: nonzero; opacity: 1" transform=" matrix(1 0 0 1 0 0) " stroke-linecap="round" /><path d="M 247.7717722765348 71.50354792440564 L 247.7717722765348 84.50354792440564 L 317 111 L 317 98 L 247.7717722765348 71.50354792440564 Z" style="stroke: none; stroke-width: 1; stroke-dasharray: none; stroke-linecap: butt; stroke-linejoin: miter; stroke-miterlimit: 10;fill:#CAAA00;fill-opacity:1; fill-rule: nonzero; opacity: 1" transform=" matrix(1 0 0 1 0 0) " stroke-linecap="round" /><path d="M 317 98 L 346.0818396620895 149.13770672385382 A 79 55 0 0 1 247.7717722765348 71.50354792440564 L 317 98 Z" style="stroke:#FFFFFF;stroke-opacity:1; stroke-width: 2; stroke-dasharray: none; stroke-linecap: butt; stroke-linejoin: miter; stroke-miterlimit: 10;fill:#FDD400;fill-opacity:1; fill-rule: nonzero; opacity: 1" transform=" matrix(1 0 0 1 0 0) " stroke-linecap="round" /><path d="M 258.5 135.5 L 246.5 142.5 L 238.5 142.5" style="stroke:#000000;stroke-opacity:1; stroke-opacity: 0.3; stroke-width: 1; stroke-dasharray: none; stroke-linecap: butt; stroke-linejoin: miter; stroke-miterlimit: 10; fill: none; fill-rule: nonzero; opacity: 1" transform=" matrix(1 0 0 1 0 0) " stroke-linecap="round" /><g transform=" matrix(1 0 0 1 421 86) "><text font-family="Verdana" font-size="11" font-weight="normal" style="stroke: none; stroke-width: 1; stroke-dasharray: none; stroke-linecap: butt; stroke-linejoin: miter; stroke-miterlimit: 10;fill:#000000;fill-opacity:1; fill-rule: nonzero; opacity: 1" ><tspan x="0.5" y="5.49" fill="rgba(0,0,0,1)">Adverse weather &amp; Overloading: 44%</tspan></text></g><g transform=" matrix(1 0 0 1 234 142) "><text font-family="Verdana" font-size="11" font-weight="normal" style="stroke: none; stroke-width: 1; stroke-dasharray: none; stroke-linecap: butt; stroke-linejoin: miter; stroke-miterlimit: 10;fill:#000000;fill-opacity:1; fill-rule: nonzero; opacity: 1" ><tspan x="-64.13" y="5.49" fill="rgba(0,0,0,1)">Collision: 39%</tspan></text></g><g transform=" matrix(1 0 0 1 238 51) "><text font-family="Verdana" font-size="11" font-weight="normal" style="stroke: none; stroke-width: 1; stroke-dasharray: none; stroke-linecap: butt; stroke-linejoin: miter; stroke-miterlimit: 10;fill:#000000;fill-opacity:1; fill-rule: nonzero; opacity: 1" ><tspan x="-102.01" y="5.49" fill="rgba(0,0,0,1)">Excessive Current: 9%</tspan></text></g><g transform=" matrix(1 0 0 1 270 31) "><text font-family="Verdana" font-size="11" font-weight="normal" style="stroke: none; stroke-width: 1; stroke-dasharray: none; stroke-linecap: butt; stroke-linejoin: miter; stroke-miterlimit: 10;fill:#000000;fill-opacity:1; fill-rule: nonzero; opacity: 1" ><tspan x="-92.62" y="5.49" fill="rgba(0,0,0,1)">Physical Failure: 4%</tspan></text></g><g transform=" matrix(1 0 0 1 293 10) "><text font-family="Verdana" font-size="11" font-weight="normal" style="stroke: none; stroke-width: 1; stroke-dasharray: none; stroke-linecap: butt; stroke-linejoin: miter; stroke-miterlimit: 10;fill:#000000;fill-opacity:1; fill-rule: nonzero; opacity: 1" ><tspan x="-49.91" y="5.49" fill="rgba(0,0,0,1)">Others: 4%</tspan></text></g></g><g style="stroke: none; stroke-width: 1; stroke-dasharray: none; stroke-linecap: butt; stroke-linejoin: miter; stroke-miterlimit: 10; fill: none; fill-rule: nonzero; opacity: 1" transform="translate(0 187)" ><path d="M 0.5 0.5 L 633.5 0.5 L 633.5 93.5 L 0.5 93.5 Z" style="stroke:#000000;stroke-opacity:1; stroke-opacity: 0; stroke-width: 1; stroke-dasharray: none; stroke-linecap: butt; stroke-linejoin: miter; stroke-miterlimit: 10;fill:#FFFFFF;fill-opacity:1; fill-opacity: 0; fill-rule: nonzero; opacity: 1" transform=" matrix(1 0 0 1 0 0) " stroke-linecap="round" /><circle cx="0" cy="0" r="8" style="stroke:#67B7DC;stroke-opacity:1; stroke-width: 1; stroke-dasharray: none; stroke-linecap: butt; stroke-linejoin: miter; stroke-miterlimit: 10;fill:#67B7DC;fill-opacity:1; fill-rule: nonzero; opacity: 1" transform="  matrix(1 0 0 1 89 19) "/><path d="M -5.5 -5.5 L 6.5 6.5" style="stroke:#FFFFFF;stroke-opacity:1; stroke-opacity: 0; stroke-width: 3; stroke-dasharray: none; stroke-linecap: butt; stroke-linejoin: miter; stroke-miterlimit: 10; fill: none; fill-rule: nonzero; opacity: 0" transform=" matrix(1 0 0 1 89 19) " stroke-linecap="round" /><path d="M -5.5 6.5 L 6.5 -5.5" style="stroke:#FFFFFF;stroke-opacity:1; stroke-opacity: 0; stroke-width: 3; stroke-dasharray: none; stroke-linecap: butt; stroke-linejoin: miter; stroke-miterlimit: 10; fill: none; fill-rule: nonzero; opacity: 0" transform=" matrix(1 0 0 1 89 19) " stroke-linecap="round" /><g transform=" matrix(1 0 0 1 102 18) "><text font-family="Verdana" font-size="11" font-weight="normal" style="stroke: none; stroke-width: 1; stroke-dasharray: none; stroke-linecap: butt; stroke-linejoin: miter; stroke-miterlimit: 10;fill:#000000;fill-opacity:1; fill-rule: nonzero; opacity: 1" ><tspan x="0.5" y="5.49" fill="rgba(0,0,0,1)">Adverse weather &amp; Overloading</tspan></text></g><g transform=" matrix(1 0 0 1 308 18) "><text font-family="Verdana" font-size="11" font-weight="normal" style="stroke: none; stroke-width: 1; stroke-dasharray: none; stroke-linecap: butt; stroke-linejoin: miter; stroke-miterlimit: 10;fill:#000000;fill-opacity:1; fill-rule: nonzero; opacity: 1" ><tspan x="-10.82" y="5.49" fill="rgba(0,0,0,1)">44</tspan></text></g><rect x="16" y="0" rx="0" ry="0" width="210.78125" height="18" style="stroke: none; stroke-width: 0; stroke-dasharray: none; stroke-linecap: butt; stroke-linejoin: miter; stroke-miterlimit: 10;fill:#FFFFFF;fill-opacity:1; fill-opacity: 0.005; fill-rule: nonzero; opacity: 1" transform=" matrix(1 0 0 1 81 11) "/><circle cx="0" cy="0" r="8" style="stroke:#FDD400;stroke-opacity:1; stroke-width: 1; stroke-dasharray: none; stroke-linecap: butt; stroke-linejoin: miter; stroke-miterlimit: 10;fill:#FDD400;fill-opacity:1; fill-rule: nonzero; opacity: 1" transform="  matrix(1 0 0 1 332 19) "/><path d="M -5.5 -5.5 L 6.5 6.5" style="stroke:#FFFFFF;stroke-opacity:1; stroke-opacity: 0; stroke-width: 3; stroke-dasharray: none; stroke-linecap: butt; stroke-linejoin: miter; stroke-miterlimit: 10; fill: none; fill-rule: nonzero; opacity: 0" transform=" matrix(1 0 0 1 332 19) " stroke-linecap="round" /><path d="M -5.5 6.5 L 6.5 -5.5" style="stroke:#FFFFFF;stroke-opacity:1; stroke-opacity: 0; stroke-width: 3; stroke-dasharray: none; stroke-linecap: butt; stroke-linejoin: miter; stroke-miterlimit: 10; fill: none; fill-rule: nonzero; opacity: 0" transform=" matrix(1 0 0 1 332 19) " stroke-linecap="round" /><g transform=" matrix(1 0 0 1 345 18) "><text font-family="Verdana" font-size="11" font-weight="normal" style="stroke: none; stroke-width: 1; stroke-dasharray: none; stroke-linecap: butt; stroke-linejoin: miter; stroke-miterlimit: 10;fill:#000000;fill-opacity:1; fill-rule: nonzero; opacity: 1" ><tspan x="0.5" y="5.49" fill="rgba(0,0,0,1)">Collision</tspan></text></g><g transform=" matrix(1 0 0 1 551 18) "><text font-family="Verdana" font-size="11" font-weight="normal" style="stroke: none; stroke-width: 1; stroke-dasharray: none; stroke-linecap: butt; stroke-linejoin: miter; stroke-miterlimit: 10;fill:#000000;fill-opacity:1; fill-rule: nonzero; opacity: 1" ><tspan x="-10.82" y="5.49" fill="rgba(0,0,0,1)">39</tspan></text></g><rect x="16" y="0" rx="0" ry="0" width="210.78125" height="18" style="stroke: none; stroke-width: 0; stroke-dasharray: none; stroke-linecap: butt; stroke-linejoin: miter; stroke-miterlimit: 10;fill:#FFFFFF;fill-opacity:1; fill-opacity: 0.005; fill-rule: nonzero; opacity: 1" transform=" matrix(1 0 0 1 324 11) "/><circle cx="0" cy="0" r="8" style="stroke:#84B761;stroke-opacity:1; stroke-width: 1; stroke-dasharray: none; stroke-linecap: butt; stroke-linejoin: miter; stroke-miterlimit: 10;fill:#84B761;fill-opacity:1; fill-rule: nonzero; opacity: 1" transform="  matrix(1 0 0 1 89 47) "/><path d="M -5.5 -5.5 L 6.5 6.5" style="stroke:#FFFFFF;stroke-opacity:1; stroke-opacity: 0; stroke-width: 3; stroke-dasharray: none; stroke-linecap: butt; stroke-linejoin: miter; stroke-miterlimit: 10; fill: none; fill-rule: nonzero; opacity: 0" transform=" matrix(1 0 0 1 89 47) " stroke-linecap="round" /><path d="M -5.5 6.5 L 6.5 -5.5" style="stroke:#FFFFFF;stroke-opacity:1; stroke-opacity: 0; stroke-width: 3; stroke-dasharray: none; stroke-linecap: butt; stroke-linejoin: miter; stroke-miterlimit: 10; fill: none; fill-rule: nonzero; opacity: 0" transform=" matrix(1 0 0 1 89 47) " stroke-linecap="round" /><g transform=" matrix(1 0 0 1 102 46) "><text font-family="Verdana" font-size="11" font-weight="normal" style="stroke: none; stroke-width: 1; stroke-dasharray: none; stroke-linecap: butt; stroke-linejoin: miter; stroke-miterlimit: 10;fill:#000000;fill-opacity:1; fill-rule: nonzero; opacity: 1" ><tspan x="0.5" y="5.49" fill="rgba(0,0,0,1)">Excessive Current</tspan></text></g><g transform=" matrix(1 0 0 1 308 46) "><text font-family="Verdana" font-size="11" font-weight="normal" style="stroke: none; stroke-width: 1; stroke-dasharray: none; stroke-linecap: butt; stroke-linejoin: miter; stroke-miterlimit: 10;fill:#000000;fill-opacity:1; fill-rule: nonzero; opacity: 1" ><tspan x="-5.66" y="5.49" fill="rgba(0,0,0,1)">9</tspan></text></g><rect x="16" y="0" rx="0" ry="0" width="210.78125" height="18" style="stroke: none; stroke-width: 0; stroke-dasharray: none; stroke-linecap: butt; stroke-linejoin: miter; stroke-miterlimit: 10;fill:#FFFFFF;fill-opacity:1; fill-opacity: 0.005; fill-rule: nonzero; opacity: 1" transform=" matrix(1 0 0 1 81 39) "/><circle cx="0" cy="0" r="8" style="stroke:#CC4748;stroke-opacity:1; stroke-width: 1; stroke-dasharray: none; stroke-linecap: butt; stroke-linejoin: miter; stroke-miterlimit: 10;fill:#CC4748;fill-opacity:1; fill-rule: nonzero; opacity: 1" transform="  matrix(1 0 0 1 332 47) "/><path d="M -5.5 -5.5 L 6.5 6.5" style="stroke:#FFFFFF;stroke-opacity:1; stroke-opacity: 0; stroke-width: 3; stroke-dasharray: none; stroke-linecap: butt; stroke-linejoin: miter; stroke-miterlimit: 10; fill: none; fill-rule: nonzero; opacity: 0" transform=" matrix(1 0 0 1 332 47) " stroke-linecap="round" /><path d="M -5.5 6.5 L 6.5 -5.5" style="stroke:#FFFFFF;stroke-opacity:1; stroke-opacity: 0; stroke-width: 3; stroke-dasharray: none; stroke-linecap: butt; stroke-linejoin: miter; stroke-miterlimit: 10; fill: none; fill-rule: nonzero; opacity: 0" transform=" matrix(1 0 0 1 332 47) " stroke-linecap="round" /><g transform=" matrix(1 0 0 1 345 46) "><text font-family="Verdana" font-size="11" font-weight="normal" style="stroke: none; stroke-width: 1; stroke-dasharray: none; stroke-linecap: butt; stroke-linejoin: miter; stroke-miterlimit: 10;fill:#000000;fill-opacity:1; fill-rule: nonzero; opacity: 1" ><tspan x="0.5" y="5.49" fill="rgba(0,0,0,1)">Physical Failure</tspan></text></g><g transform=" matrix(1 0 0 1 551 46) "><text font-family="Verdana" font-size="11" font-weight="normal" style="stroke: none; stroke-width: 1; stroke-dasharray: none; stroke-linecap: butt; stroke-linejoin: miter; stroke-miterlimit: 10;fill:#000000;fill-opacity:1; fill-rule: nonzero; opacity: 1" ><tspan x="-5.66" y="5.49" fill="rgba(0,0,0,1)">4</tspan></text></g><rect x="16" y="0" rx="0" ry="0" width="210.78125" height="18" style="stroke: none; stroke-width: 0; stroke-dasharray: none; stroke-linecap: butt; stroke-linejoin: miter; stroke-miterlimit: 10;fill:#FFFFFF;fill-opacity:1; fill-opacity: 0.005; fill-rule: nonzero; opacity: 1" transform=" matrix(1 0 0 1 324 39) "/><circle cx="0" cy="0" r="8" style="stroke:#CD82AD;stroke-opacity:1; stroke-width: 1; stroke-dasharray: none; stroke-linecap: butt; stroke-linejoin: miter; stroke-miterlimit: 10;fill:#CD82AD;fill-opacity:1; fill-rule: nonzero; opacity: 1" transform="  matrix(1 0 0 1 89 75) "/><path d="M -5.5 -5.5 L 6.5 6.5" style="stroke:#FFFFFF;stroke-opacity:1; stroke-opacity: 0; stroke-width: 3; stroke-dasharray: none; stroke-linecap: butt; stroke-linejoin: miter; stroke-miterlimit: 10; fill: none; fill-rule: nonzero; opacity: 0" transform=" matrix(1 0 0 1 89 75) " stroke-linecap="round" /><path d="M -5.5 6.5 L 6.5 -5.5" style="stroke:#FFFFFF;stroke-opacity:1; stroke-opacity: 0; stroke-width: 3; stroke-dasharray: none; stroke-linecap: butt; stroke-linejoin: miter; stroke-miterlimit: 10; fill: none; fill-rule: nonzero; opacity: 0" transform=" matrix(1 0 0 1 89 75) " stroke-linecap="round" /><g transform=" matrix(1 0 0 1 102 74) "><text font-family="Verdana" font-size="11" font-weight="normal" style="stroke: none; stroke-width: 1; stroke-dasharray: none; stroke-linecap: butt; stroke-linejoin: miter; stroke-miterlimit: 10;fill:#000000;fill-opacity:1; fill-rule: nonzero; opacity: 1" ><tspan x="0.5" y="5.49" fill="rgba(0,0,0,1)">Others</tspan></text></g><g transform=" matrix(1 0 0 1 308 74) "><text font-family="Verdana" font-size="11" font-weight="normal" style="stroke: none; stroke-width: 1; stroke-dasharray: none; stroke-linecap: butt; stroke-linejoin: miter; stroke-miterlimit: 10;fill:#000000;fill-opacity:1; fill-rule: nonzero; opacity: 1" ><tspan x="-5.66" y="5.49" fill="rgba(0,0,0,1)">4</tspan></text></g><rect x="16" y="0" rx="0" ry="0" width="210.78125" height="18" style="stroke: none; stroke-width: 0; stroke-dasharray: none; stroke-linecap: butt; stroke-linejoin: miter; stroke-miterlimit: 10;fill:#FFFFFF;fill-opacity:1; fill-opacity: 0.005; fill-rule: nonzero; opacity: 1" transform=" matrix(1 0 0 1 81 67) "/></g></svg>